<svg width="23" height="18" viewBox="0 0 23 18" fill="none" xmlns="http://www.w3.org/2000/svg">
<path d="M5.75549 16.7779C1.77088 20.647 -2.69336 14.377 2.03652 11.1588C5.74073 8.63485 10.8617 9.81365 14.1232 12.4894L11.1864 4.13663L9.3195 9.50991L7.26816 9.22064L10.1459 0.679796C10.5813 -0.180797 11.5258 -0.224188 12.0128 0.585782C13.6804 5.43113 15.5916 10.1969 17.2592 15.0423C17.5027 15.7438 18.1963 17.0383 17.5027 17.5951C16.3221 18.5425 15.4956 16.6622 14.8537 15.9607C12.5219 13.3862 9.26785 11.2311 5.57101 11.8603C3.94028 12.1351 1.75612 13.2126 2.06603 15.1363C2.10293 15.375 2.49401 15.874 2.71538 15.939C4.35349 16.4236 5.65218 13.379 6.16871 12.258C6.82543 12.1206 7.48215 12.2725 8.1315 12.352C8.27907 12.4605 8.18315 12.4677 8.15363 12.569C8.0946 12.7859 7.96178 13.0463 7.88061 13.2633C7.42312 14.3842 6.61882 15.939 5.74073 16.7852L5.75549 16.7779Z" fill="url(#paint0_linear_581_8205)"/>
<path d="M20.4838 16.7418V5.1274C20.4838 4.52715 20.9782 4.04262 21.5906 4.04262H21.8932C22.5056 4.04262 23 4.52715 23 5.1274V16.7418C23 17.342 22.5056 17.8266 21.8932 17.8266H21.5906C20.9782 17.8266 20.4838 17.342 20.4838 16.7418Z" fill="url(#paint1_linear_581_8205)"/>
<path d="M21.7456 2.45884C22.4384 2.45884 23 1.90841 23 1.22942C23 0.550429 22.4384 0 21.7456 0C21.0528 0 20.4912 0.550429 20.4912 1.22942C20.4912 1.90841 21.0528 2.45884 21.7456 2.45884Z" fill="url(#paint2_linear_581_8205)"/>
<defs>
<linearGradient id="paint0_linear_581_8205" x1="56.6569" y1="18.68" x2="54.1405" y2="-8.8664" gradientUnits="userSpaceOnUse">
<stop stop-color="#FF4F75"/>
<stop offset="1" stop-color="#FF85A2"/>
</linearGradient>
<linearGradient id="paint1_linear_581_8205" x1="56.6569" y1="18.68" x2="54.1405" y2="-8.8664" gradientUnits="userSpaceOnUse">
<stop stop-color="#FF4F75"/>
<stop offset="1" stop-color="#FF85A2"/>
</linearGradient>
<linearGradient id="paint2_linear_581_8205" x1="56.6569" y1="18.68" x2="54.1405" y2="-8.8664" gradientUnits="userSpaceOnUse">
<stop stop-color="#FF4F75"/>
<stop offset="1" stop-color="#FF85A2"/>
</linearGradient>
</defs>
</svg>
