<svg width="86" height="86" viewBox="0 0 86 86" fill="none" xmlns="http://www.w3.org/2000/svg">
<g filter="url(#filter0_bd_177_2436)">
<circle cx="43" cy="43" r="31" fill="currentColor" fill-opacity="0.8" shape-rendering="crispEdges"/>
<circle cx="43" cy="43" r="30.875" stroke="currentColor" stroke-width="0.25" shape-rendering="crispEdges"/>
</g>
<path d="M54.8409 35.1218C54.1568 34.4491 53.3445 33.9155 52.4504 33.5514C51.5563 33.1874 50.598 33 49.6302 33C48.6625 33 47.7042 33.1874 46.8101 33.5514C45.916 33.9155 45.1037 34.4491 44.4195 35.1218L42.9996 36.5171L41.5798 35.1218C40.1978 33.7637 38.3234 33.0007 36.3691 33.0007C34.4147 33.0007 32.5403 33.7637 31.1583 35.1218C29.7764 36.4799 29 38.3218 29 40.2425C29 42.1631 29.7764 44.0051 31.1583 45.3632L42.2987 56.3112C42.6878 56.6935 43.3115 56.6935 43.7006 56.3112L54.8409 45.3632C55.5254 44.6909 56.0684 43.8926 56.4389 43.0139C56.8093 42.1353 57 41.1936 57 40.2425C57 39.2914 56.8093 38.3497 56.4389 37.471C56.0684 36.5924 55.5254 35.7941 54.8409 35.1218Z" fill="#FF4F75"/>
<defs>
<filter id="filter0_bd_177_2436" x="0" y="0" width="86" height="86" filterUnits="userSpaceOnUse" color-interpolation-filters="sRGB">
<feFlood flood-opacity="0" result="BackgroundImageFix"/>
<feGaussianBlur in="BackgroundImageFix" stdDeviation="2"/>
<feComposite in2="SourceAlpha" operator="in" result="effect1_backgroundBlur_177_2436"/>
<feColorMatrix in="SourceAlpha" type="matrix" values="0 0 0 0 0 0 0 0 0 0 0 0 0 0 0 0 0 0 127 0" result="hardAlpha"/>
<feOffset/>
<feGaussianBlur stdDeviation="6"/>
<feComposite in2="hardAlpha" operator="out"/>
<feColorMatrix type="matrix" values="0 0 0 0 0 0 0 0 0 0 0 0 0 0 0 0 0 0 0.1 0"/>
<feBlend mode="normal" in2="effect1_backgroundBlur_177_2436" result="effect2_dropShadow_177_2436"/>
<feBlend mode="normal" in="SourceGraphic" in2="effect2_dropShadow_177_2436" result="shape"/>
</filter>
</defs>
</svg>
