<svg width="86" height="86" viewBox="0 0 86 86" fill="none" xmlns="http://www.w3.org/2000/svg">
<g filter="url(#filter0_bd_177_2431)">
<circle cx="43" cy="43" r="31" fill="white" fill-opacity="0.8" shape-rendering="crispEdges"/>
<circle cx="43" cy="43" r="30.875" stroke="white" stroke-width="0.25" shape-rendering="crispEdges"/>
</g>
<path d="M40.5971 48.4029L56.3803 32.6197C56.5307 32.4693 56.3735 32.2193 56.1728 32.2895L27.4761 42.3333C27.3052 42.3932 27.2955 42.6313 27.461 42.7049L40.3745 48.4442C40.4501 48.4778 40.5386 48.4614 40.5971 48.4029Z" fill="#FF85A2"/>
<path d="M40.9174 48.7242L56.7006 32.941C56.851 32.7906 57.101 32.9478 57.0308 33.1485L46.987 61.8451C46.9271 62.0161 46.689 62.0258 46.6154 61.8603L40.8761 48.9468C40.8425 48.8712 40.8589 48.7827 40.9174 48.7242Z" fill="#FF85A2"/>
<defs>
<filter id="filter0_bd_177_2431" x="0" y="0" width="86" height="86" filterUnits="userSpaceOnUse" color-interpolation-filters="sRGB">
<feFlood flood-opacity="0" result="BackgroundImageFix"/>
<feGaussianBlur in="BackgroundImageFix" stdDeviation="2"/>
<feComposite in2="SourceAlpha" operator="in" result="effect1_backgroundBlur_177_2431"/>
<feColorMatrix in="SourceAlpha" type="matrix" values="0 0 0 0 0 0 0 0 0 0 0 0 0 0 0 0 0 0 127 0" result="hardAlpha"/>
<feOffset/>
<feGaussianBlur stdDeviation="6"/>
<feComposite in2="hardAlpha" operator="out"/>
<feColorMatrix type="matrix" values="0 0 0 0 0 0 0 0 0 0 0 0 0 0 0 0 0 0 0.1 0"/>
<feBlend mode="normal" in2="effect1_backgroundBlur_177_2431" result="effect2_dropShadow_177_2431"/>
<feBlend mode="normal" in="SourceGraphic" in2="effect2_dropShadow_177_2431" result="shape"/>
</filter>
</defs>
</svg>
