<svg width="62" height="62" viewBox="0 0 62 62" fill="none" xmlns="http://www.w3.org/2000/svg">
  <g filter="url(#filter0_bd_294_3364)">
    <circle cx="31" cy="31" r="31" fill="#FF4F75"/>
  </g>
  <g filter="url(#filter1_d_294_3364)">
    <path d="M42.8409 23.1218C42.1568 22.4491 41.3445 21.9155 40.4504 21.5514C39.5563 21.1874 38.598 21 37.6302 21C36.6625 21 35.7042 21.1874 34.8101 21.5514C33.916 21.9155 33.1037 22.4491 32.4195 23.1218L30.9996 24.5171L29.5798 23.1218C28.1978 21.7637 26.3234 21.0007 24.3691 21.0007C22.4147 21.0007 20.5403 21.7637 19.1583 23.1218C17.7764 24.4799 17 26.3218 17 28.2425C17 30.1631 17.7764 32.0051 19.1583 33.3632L30.2987 44.3112C30.6878 44.6935 31.3115 44.6935 31.7006 44.3112L42.8409 33.3632C43.5254 32.6909 44.0684 31.8926 44.4389 31.0139C44.8093 30.1353 45 29.1936 45 28.2425C45 27.2914 44.8093 26.3497 44.4389 25.471C44.0684 24.5924 43.5254 23.7941 42.8409 23.1218Z" fill="white"/>
  </g>
</svg>