<svg width="35" height="33" viewBox="0 0 35 33" fill="none" xmlns="http://www.w3.org/2000/svg">
<path d="M23.7735 17.1812C26.7582 17.1812 29.1778 14.7482 29.1778 11.7469C29.1778 8.74555 26.7582 6.3125 23.7735 6.3125C20.7887 6.3125 18.3691 8.74555 18.3691 11.7469C18.3691 14.7482 20.7887 17.1812 23.7735 17.1812Z" fill="#FF4F75"/>
<path d="M32.9993 20.664C34.0128 21.6831 34.5822 23.0653 34.5822 24.5066V26.2238C34.5822 26.7761 34.1345 27.2238 33.5822 27.2238H13.9648C13.4126 27.2238 12.9648 26.7761 12.9648 26.2238V24.5066C12.9648 23.0653 13.5342 21.6831 14.5477 20.664C15.5612 19.6448 16.9359 19.0723 18.3692 19.0723H29.1779C30.6112 19.0723 31.9858 19.6448 32.9993 20.664Z" fill="#FF4F75"/>
<g filter="url(#filter0_d_294_2436)">
<path d="M17.8068 16.878C21.3433 16.878 24.2102 13.9952 24.2102 10.439C24.2102 6.88285 21.3433 4 17.8068 4C14.2702 4 11.4033 6.88285 11.4033 10.439C11.4033 13.9952 14.2702 16.878 17.8068 16.878Z" fill="white" fill-opacity="0.5" stroke="white" stroke-width="0.25" stroke-linecap="round" stroke-linejoin="round"/>
<path d="M28.7383 21.0051C29.9391 22.2126 30.6138 23.8504 30.6138 25.5582V26.7777C30.6138 27.8822 29.7183 28.7777 28.6138 28.7777H7C5.89543 28.7777 5 27.8822 5 26.7777V25.5582C5 23.8504 5.67465 22.2126 6.87552 21.0051C8.0764 19.7975 9.70514 19.1191 11.4034 19.1191H24.2103C25.9086 19.1191 27.5374 19.7975 28.7383 21.0051Z" fill="white" fill-opacity="0.5" stroke="white" stroke-width="0.25" stroke-linecap="round" stroke-linejoin="round"/>
</g>
<path d="M19.6213 13.7119C18.5897 14.7435 16.9173 14.7435 15.8857 13.7119" stroke="white" stroke-width="0.5" stroke-linecap="round"/>
<g filter="url(#filter1_d_294_2436)">
<path d="M17.8068 16.878C21.3433 16.878 24.2102 13.9952 24.2102 10.439C24.2102 6.88285 21.3433 4 17.8068 4C14.2702 4 11.4033 6.88285 11.4033 10.439C11.4033 13.9952 14.2702 16.878 17.8068 16.878Z" fill="white" fill-opacity="0.5" stroke="white" stroke-width="0.25" stroke-linecap="round" stroke-linejoin="round"/>
<path d="M28.7383 21.0051C29.9391 22.2126 30.6138 23.8504 30.6138 25.5582V26.7777C30.6138 27.8822 29.7183 28.7777 28.6138 28.7777H7C5.89543 28.7777 5 27.8822 5 26.7777V25.5582C5 23.8504 5.67465 22.2126 6.87552 21.0051C8.0764 19.7975 9.70514 19.1191 11.4034 19.1191H24.2103C25.9086 19.1191 27.5374 19.7975 28.7383 21.0051Z" fill="white" fill-opacity="0.5" stroke="white" stroke-width="0.25" stroke-linecap="round" stroke-linejoin="round"/>
</g>
<defs>
<filter id="filter0_d_294_2436" x="-2.125" y="-3.125" width="39.8643" height="39.0273" filterUnits="userSpaceOnUse" color-interpolation-filters="sRGB">
<feFlood flood-opacity="0" result="BackgroundImageFix"/>
<feColorMatrix in="SourceAlpha" type="matrix" values="0 0 0 0 0 0 0 0 0 0 0 0 0 0 0 0 0 0 127 0" result="hardAlpha"/>
<feOffset dx="-0.73"/>
<feGaussianBlur stdDeviation="1.8254"/>
<feComposite in2="hardAlpha" operator="out"/>
<feColorMatrix type="matrix" values="0 0 0 0 1 0 0 0 0 0.309804 0 0 0 0 0.458824 0 0 0 0.25 0"/>
<feBlend mode="normal" in2="BackgroundImageFix" result="effect1_dropShadow_294_2436"/>
<feBlend mode="normal" in="SourceGraphic" in2="effect1_dropShadow_294_2436" result="shape"/>
</filter>
<filter id="filter1_d_294_2436" x="-2.125" y="-3.125" width="39.8643" height="39.0273" filterUnits="userSpaceOnUse" color-interpolation-filters="sRGB">
<feFlood flood-opacity="0" result="BackgroundImageFix"/>
<feColorMatrix in="SourceAlpha" type="matrix" values="0 0 0 0 0 0 0 0 0 0 0 0 0 0 0 0 0 0 127 0" result="hardAlpha"/>
<feOffset dx="-0.73"/>
<feGaussianBlur stdDeviation="1.8254"/>
<feComposite in2="hardAlpha" operator="out"/>
<feColorMatrix type="matrix" values="0 0 0 0 1 0 0 0 0 0.309804 0 0 0 0 0.458824 0 0 0 0.25 0"/>
<feBlend mode="normal" in2="BackgroundImageFix" result="effect1_dropShadow_294_2436"/>
<feBlend mode="normal" in="SourceGraphic" in2="effect1_dropShadow_294_2436" result="shape"/>
</filter>
</defs>
</svg>
