<svg width="28" height="43" viewBox="0 0 28 43" fill="none" xmlns="http://www.w3.org/2000/svg">
<path fill-rule="evenodd" clip-rule="evenodd" d="M20.5017 9C19.9494 9 19.5017 9.44771 19.5017 10V17.7713C17.356 18.6092 15.8359 20.6966 15.8359 23.139V35.3536C15.8359 35.8379 16.2285 36.2304 16.7128 36.2304H26.4796C26.9639 36.2304 27.3564 35.8379 27.3564 35.3536V23.139C27.3564 20.6967 25.8365 18.6094 23.691 17.7714V10C23.691 9.44772 23.2432 9 22.691 9H20.5017Z" fill="#FF4F75"/>
<g filter="url(#filter0_bd_159_2465)">
<mask id="path-2-inside-1_159_2465" fill="white">
<path fill-rule="evenodd" clip-rule="evenodd" d="M19.1747 4.44204C18.6413 4.2991 18.0929 4.61568 17.95 5.14915L15.3769 14.7523C12.5214 15.0696 10.0165 17.0938 9.2281 20.0363L5.28437 34.7545C5.12801 35.338 5.4743 35.9378 6.05781 36.0942L17.8265 39.2476C18.41 39.4039 19.0098 39.0577 19.1661 38.4742L23.1099 23.756C23.8985 20.8126 22.7405 17.8063 20.425 16.104L22.9979 6.50174C23.1409 5.96827 22.8243 5.41993 22.2908 5.27699L19.1747 4.44204Z"/>
</mask>
<path fill-rule="evenodd" clip-rule="evenodd" d="M19.1747 4.44204C18.6413 4.2991 18.0929 4.61568 17.95 5.14915L15.3769 14.7523C12.5214 15.0696 10.0165 17.0938 9.2281 20.0363L5.28437 34.7545C5.12801 35.338 5.4743 35.9378 6.05781 36.0942L17.8265 39.2476C18.41 39.4039 19.0098 39.0577 19.1661 38.4742L23.1099 23.756C23.8985 20.8126 22.7405 17.8063 20.425 16.104L22.9979 6.50174C23.1409 5.96827 22.8243 5.41993 22.2908 5.27699L19.1747 4.44204Z" fill="white" fill-opacity="0.5" shape-rendering="crispEdges"/>
<path d="M15.3769 14.7523L15.4045 15.0007L15.5741 14.9819L15.6183 14.817L15.3769 14.7523ZM19.1661 38.4742L19.4076 38.5389L19.1661 38.4742ZM23.1099 23.756L22.8684 23.6912L23.1099 23.756ZM20.425 16.104L20.1835 16.0393L20.1393 16.2043L20.2769 16.3054L20.425 16.104ZM22.9979 6.50174L22.7564 6.43703L22.9979 6.50174ZM18.1915 5.21385C18.2987 4.81376 18.7099 4.57632 19.11 4.68352L19.2395 4.20056C18.5726 4.02188 17.8872 4.41761 17.7085 5.08445L18.1915 5.21385ZM15.6183 14.817L18.1915 5.21385L17.7085 5.08445L15.1354 14.6876L15.6183 14.817ZM9.46958 20.101C10.2305 17.2613 12.6479 15.3071 15.4045 15.0007L15.3492 14.5038C12.3949 14.8321 9.80259 16.9264 8.98662 19.9716L9.46958 20.101ZM5.52585 34.8192L9.46958 20.101L8.98662 19.9716L5.04288 34.6898L5.52585 34.8192ZM6.12251 35.8527C5.67237 35.7321 5.40523 35.2694 5.52585 34.8192L5.04288 34.6898C4.8508 35.4067 5.27622 36.1436 5.9931 36.3357L6.12251 35.8527ZM17.8912 39.0061L6.12251 35.8527L5.9931 36.3357L17.7618 39.4891L17.8912 39.0061ZM18.9247 38.4094C18.804 38.8596 18.3413 39.1267 17.8912 39.0061L17.7618 39.4891C18.4787 39.6812 19.2155 39.2557 19.4076 38.5389L18.9247 38.4094ZM22.8684 23.6912L18.9247 38.4094L19.4076 38.5389L23.3513 23.8207L22.8684 23.6912ZM20.2769 16.3054C22.5122 17.9488 23.6295 20.8507 22.8684 23.6912L23.3513 23.8207C24.1675 20.7746 22.9688 17.6638 20.5731 15.9026L20.2769 16.3054ZM22.7564 6.43703L20.1835 16.0393L20.6665 16.1687L23.2394 6.56644L22.7564 6.43703ZM22.2261 5.51847C22.6262 5.62568 22.8636 6.03693 22.7564 6.43703L23.2394 6.56644C23.4181 5.89961 23.0223 5.21419 22.3555 5.03551L22.2261 5.51847ZM19.11 4.68352L22.2261 5.51847L22.3555 5.03551L19.2395 4.20056L19.11 4.68352Z" fill="white" mask="url(#path-2-inside-1_159_2465)"/>
</g>
<g filter="url(#filter1_d_159_2465)">
<rect x="10.748" y="21.9417" width="8.41004" height="11.7583" rx="0.5" transform="rotate(15 10.748 21.9417)" fill="white"/>
</g>
<defs>
<filter id="filter0_bd_159_2465" x="0.866277" y="0.756921" width="26.141" height="42.179" filterUnits="userSpaceOnUse" color-interpolation-filters="sRGB">
<feFlood flood-opacity="0" result="BackgroundImageFix"/>
<feGaussianBlur in="BackgroundImageFix" stdDeviation="1.8254"/>
<feComposite in2="SourceAlpha" operator="in" result="effect1_backgroundBlur_159_2465"/>
<feColorMatrix in="SourceAlpha" type="matrix" values="0 0 0 0 0 0 0 0 0 0 0 0 0 0 0 0 0 0 127 0" result="hardAlpha"/>
<feOffset dx="-0.73"/>
<feGaussianBlur stdDeviation="1.8254"/>
<feComposite in2="hardAlpha" operator="out"/>
<feColorMatrix type="matrix" values="0 0 0 0 1 0 0 0 0 0.309804 0 0 0 0 0.458824 0 0 0 0.25 0"/>
<feBlend mode="normal" in2="effect1_backgroundBlur_159_2465" result="effect2_dropShadow_159_2465"/>
<feBlend mode="normal" in="SourceGraphic" in2="effect2_dropShadow_159_2465" result="shape"/>
</filter>
<filter id="filter1_d_159_2465" x="4.81738" y="19.054" width="16.9424" height="19.3098" filterUnits="userSpaceOnUse" color-interpolation-filters="sRGB">
<feFlood flood-opacity="0" result="BackgroundImageFix"/>
<feColorMatrix in="SourceAlpha" type="matrix" values="0 0 0 0 0 0 0 0 0 0 0 0 0 0 0 0 0 0 127 0" result="hardAlpha"/>
<feOffset/>
<feGaussianBlur stdDeviation="1.5"/>
<feComposite in2="hardAlpha" operator="out"/>
<feColorMatrix type="matrix" values="0 0 0 0 1 0 0 0 0 0.309804 0 0 0 0 0.458824 0 0 0 0.3 0"/>
<feBlend mode="normal" in2="BackgroundImageFix" result="effect1_dropShadow_159_2465"/>
<feBlend mode="normal" in="SourceGraphic" in2="effect1_dropShadow_159_2465" result="shape"/>
</filter>
</defs>
</svg>
