<svg width="100" height="19" viewBox="0 0 100 19" fill="none" xmlns="http://www.w3.org/2000/svg">
<g clip-path="url(#clip0_355_2534)">
<path d="M0 17.792V1.87324C0 1.2004 0.547544 0.657545 1.21848 0.657545H7.789C11.591 0.657545 13.6963 3.24185 13.6963 6.29256C13.6963 9.34326 11.5601 11.9276 7.789 11.9276H2.77628V17.7843C2.77628 18.4495 2.22873 18.9924 1.5578 18.9924H1.22619C0.555256 18.9924 0.00771188 18.4495 0.00771188 17.7843L0 17.792ZM7.43426 3.08129H2.77628V9.51147H7.43426C9.43163 9.51147 10.8429 8.21932 10.8429 6.29256C10.8429 4.36579 9.43163 3.07364 7.43426 3.07364V3.08129Z" fill="#262626"/>
<path d="M27.3232 18.2278L26.1279 15.2H17.0587L15.8633 18.2278C15.6783 18.6942 15.231 19 14.7297 19H14.3133C13.4495 19 12.8634 18.136 13.1796 17.3408L19.5651 1.42978C19.7501 0.971026 20.1974 0.665191 20.6987 0.665191H22.511C23.0123 0.665191 23.4596 0.971026 23.6446 1.42978L30.0224 17.3485C30.3386 18.1437 29.7524 19.0076 28.8887 19.0076H28.4723C27.971 19.0076 27.516 18.7018 27.3386 18.2354L27.3232 18.2278ZM21.5856 3.05835L17.8684 12.761H25.3258L21.5856 3.05835Z" fill="url(#paint0_linear_355_2534)"/>
<path d="M32.8912 17.792V1.87324C32.8912 1.20805 33.4387 0.665191 34.1097 0.665191H34.4413C35.1122 0.665191 35.6598 1.20805 35.6598 1.87324V17.792C35.6598 18.4571 35.1122 19 34.4413 19H34.1097C33.4387 19 32.8912 18.4571 32.8912 17.792Z" fill="url(#paint1_linear_355_2534)"/>
<path d="M50.1812 18.4266L46.1325 11.9352H42.6621V17.792C42.6621 18.4571 42.1146 19 41.4437 19H41.1121C40.4411 19 39.8936 18.4571 39.8936 17.792V1.87324C39.8936 1.20805 40.4411 0.665191 41.1121 0.665191H47.6826C51.2069 0.665191 53.613 2.92072 53.613 6.3002C53.613 9.67968 51.3689 11.3618 49.009 11.66L52.5488 17.1421C53.0655 17.9449 52.4871 19.0076 51.5231 19.0076H51.2146C50.7905 19.0076 50.3972 18.7936 50.1735 18.4342L50.1812 18.4266ZM47.3201 3.08129H42.6621V9.51147H47.3201C49.3175 9.51147 50.7596 8.21932 50.7596 6.29256C50.7596 4.36579 49.3175 3.07364 47.3201 3.07364V3.08129Z" fill="#262626"/>
<path d="M57.0217 17.792V1.87324C57.0217 1.20805 57.5692 0.665191 58.2401 0.665191H58.5718C59.2427 0.665191 59.7902 1.20805 59.7902 1.87324V17.792C59.7902 18.4571 59.2427 19 58.5718 19H58.2401C57.5692 19 57.0217 18.4571 57.0217 17.792Z" fill="#262626"/>
<path d="M76.5636 18.4954L66.7001 4.92394V17.792C66.7001 18.4571 66.1525 19 65.4816 19H65.15C64.4791 19 63.9315 18.4571 63.9315 17.792V1.87324C63.9315 1.20805 64.4791 0.665191 65.15 0.665191H66.168C66.5613 0.665191 66.9237 0.848692 67.1551 1.16217L76.8566 14.4125V1.87324C76.8566 1.20805 77.4042 0.665191 78.0751 0.665191H78.4067C79.0777 0.665191 79.6252 1.20805 79.6252 1.87324V17.792C79.6252 18.4571 79.0777 19 78.4067 19H77.5584C77.1651 19 76.7949 18.8165 76.5713 18.4954H76.5636Z" fill="#262626"/>
<path d="M92.5426 0C95.3112 0 97.3317 0.993964 98.8278 2.44668C99.4062 3.00483 99.2905 3.96056 98.5887 4.36579L98.5116 4.41167C98.0335 4.68692 97.4242 4.64105 97.0309 4.25875C95.9436 3.19598 94.3472 2.45433 92.5503 2.45433C88.6944 2.45433 85.8101 5.3674 85.8101 9.49618C85.8101 13.625 88.6944 16.561 92.5503 16.561C94.6017 16.561 96.3523 15.5746 97.2391 14.7489V11.4459H92.5272C91.8562 11.4459 91.3087 10.903 91.3087 10.2378C91.3087 9.57264 91.8562 9.02978 92.5272 9.02978H98.5424C99.3522 9.02978 100.015 9.67968 100.015 10.4901V15.7658C98.2417 17.7155 95.689 19.0076 92.558 19.0076C87.26 19.0076 82.9644 15.2153 82.9644 9.49618C82.9644 3.77706 87.2445 0 92.5426 0Z" fill="#262626"/>
</g>
<defs>
<linearGradient id="paint0_linear_355_2534" x1="23.5365" y1="8.31931" x2="28.8199" y2="34.705" gradientUnits="userSpaceOnUse">
<stop stop-color="#FF4F75"/>
<stop offset="1" stop-color="#FF85A2"/>
</linearGradient>
<linearGradient id="paint1_linear_355_2534" x1="-322.612" y1="0.24572" x2="-321.719" y2="27.6717" gradientUnits="userSpaceOnUse">
<stop stop-color="#FF4F75"/>
<stop offset="1" stop-color="#FF85A2"/>
</linearGradient>
<clipPath id="clip0_355_2534">
<rect width="100" height="19" fill="white"/>
</clipPath>
</defs>
</svg>
