<svg width="23" height="4" viewBox="0 0 23 4" fill="none" xmlns="http://www.w3.org/2000/svg">
<path d="M11.708 0.0528996C10.6034 0.0528996 9.70801 0.924683 9.70801 2.00008C9.70801 3.07548 10.6034 3.94727 11.708 3.94727C12.8126 3.94727 13.708 3.07548 13.708 2.00008C13.708 0.924683 12.8126 0.0528996 11.708 0.0528996Z" fill="#909090"/>
<path d="M2.70801 0.0528996C1.60344 0.0528996 0.708008 0.924683 0.708008 2.00008C0.708008 3.07548 1.60344 3.94727 2.70801 3.94727C3.81258 3.94727 4.70801 3.07548 4.70801 2.00008C4.70801 0.924683 3.81258 0.0528996 2.70801 0.0528996Z" fill="#909090"/>
<path d="M20.708 0.0528996C19.6034 0.0528996 18.708 0.924683 18.708 2.00008C18.708 3.07548 19.6034 3.94727 20.708 3.94727C21.8126 3.94727 22.708 3.07548 22.708 2.00008C22.708 0.924683 21.8126 0.0528996 20.708 0.0528996Z" fill="#909090"/>
</svg>
