<svg width="2" height="12" viewBox="0 0 2 12" fill="none" xmlns="http://www.w3.org/2000/svg">
<path d="M1.19209e-07 5.64919C1.19209e-07 6.21645 0.447715 6.67631 1 6.67631C1.55228 6.67631 2 6.21645 2 5.64919C2 5.08192 1.55228 4.62206 1 4.62206C0.447715 4.62206 1.19209e-07 5.08192 1.19209e-07 5.64919Z" fill="#909090"/>
<path d="M1.19209e-07 10.2712C1.19209e-07 10.8385 0.447715 11.2984 1 11.2984C1.55228 11.2984 2 10.8385 2 10.2712C2 9.70398 1.55228 9.24412 1 9.24412C0.447715 9.24412 1.19209e-07 9.70398 1.19209e-07 10.2712Z" fill="#909090"/>
<path d="M1.19209e-07 1.02712C1.19209e-07 1.59439 0.447715 2.05425 1 2.05425C1.55228 2.05425 2 1.59439 2 1.02712C2 0.459859 1.55228 1.95703e-08 1 4.37114e-08C0.447715 6.78525e-08 1.19209e-07 0.459859 1.19209e-07 1.02712Z" fill="#909090"/>
</svg>
