<svg width="27" height="23" viewBox="0 0 27 23" fill="none" xmlns="http://www.w3.org/2000/svg">
<path d="M24.0863 3.94977C21.4894 1.66052 17.4976 1.96814 15.0509 4.41477L14.6002 4.86547C14.6002 4.86547 14.5716 4.87978 14.5573 4.86547L14.1066 4.41477C11.66 1.96814 7.6681 1.66052 5.07124 3.94977C2.24545 6.43932 2.1453 10.7674 4.77078 13.3929L14.2425 22.8575C14.3355 22.9505 14.4643 23.0006 14.5859 23.0006C14.7075 23.0006 14.8363 22.9505 14.9293 22.8575L24.4011 13.3929C27.0265 10.7674 26.9192 6.43932 24.1006 3.94977H24.0863Z" fill="url(#paint0_linear_988_8810)"/>
<path d="M1.93155 3.8631C2.99832 3.8631 3.8631 2.99832 3.8631 1.93155C3.8631 0.864785 2.99832 0 1.93155 0C0.864785 0 0 0.864785 0 1.93155C0 2.99832 0.864785 3.8631 1.93155 3.8631Z" fill="url(#paint1_linear_988_8810)"/>
<path fill-rule="evenodd" clip-rule="evenodd" d="M4.29719 4.95999L2.86621 3.52949L3.5732 2.82227L5.00418 4.25276L4.29719 4.95999Z" fill="url(#paint2_linear_988_8810)"/>
<path d="M20.1872 9.9388C20.1872 9.6463 19.95 9.40918 19.6575 9.40918C19.365 9.40918 19.1279 9.6463 19.1279 9.9388V11.3213C19.1279 11.6138 19.365 11.8509 19.6575 11.8509C19.95 11.8509 20.1872 11.6138 20.1872 11.3213V9.9388Z" fill="white"/>
<path d="M16.7409 9.9388C16.7409 9.6463 16.5038 9.40918 16.2113 9.40918C15.9188 9.40918 15.6816 9.6463 15.6816 9.9388V11.3213C15.6816 11.6138 15.9188 11.8509 16.2113 11.8509C16.5038 11.8509 16.7409 11.6138 16.7409 11.3213V9.9388Z" fill="white"/>
<defs>
<linearGradient id="paint0_linear_988_8810" x1="7.12441" y1="4.89161" x2="21.3224" y2="14.9079" gradientUnits="userSpaceOnUse">
<stop stop-color="#FF4F75"/>
<stop offset="1" stop-color="#FF85A2"/>
</linearGradient>
<linearGradient id="paint1_linear_988_8810" x1="0.70106" y1="0.468139" x2="3.233" y2="2.03965" gradientUnits="userSpaceOnUse">
<stop stop-color="#FF4F75"/>
<stop offset="1" stop-color="#FF85A2"/>
</linearGradient>
<linearGradient id="paint2_linear_988_8810" x1="3.2542" y1="3.08132" x2="4.65537" y2="3.95109" gradientUnits="userSpaceOnUse">
<stop stop-color="#FF4F75"/>
<stop offset="1" stop-color="#FF85A2"/>
</linearGradient>
</defs>
</svg>
