<svg width="24" height="20" viewBox="0 0 24 20" fill="none" xmlns="http://www.w3.org/2000/svg">
<path d="M23.013 12.8521C23.013 13.5683 22.7346 14.2552 22.239 14.7617C21.7434 15.2681 21.0712 15.5526 20.3704 15.5526H5.35124C5.3084 15.5526 5.2667 15.5664 5.23227 15.5919L0.318969 19.2277C0.186964 19.3254 0 19.2312 0 19.0669V3.33041C0 2.61419 0.27842 1.9273 0.774012 1.42085C1.2696 0.914402 1.94177 0.629883 2.64264 0.629883H20.3704C21.0712 0.629883 21.7434 0.914402 22.239 1.42085C22.7346 1.9273 23.013 2.61419 23.013 3.33041V12.8521Z" fill="url(#paint0_linear_137_774)"/>
<circle cx="15.6855" cy="8.16696" r="1.01852" fill="white"/>
<circle cx="11.6113" cy="8.16696" r="1.01852" fill="white"/>
<circle cx="7.53707" cy="8.16696" r="1.01852" fill="white"/>
<defs>
<linearGradient id="paint0_linear_137_774" x1="1.37516" y1="1.85818" x2="21.5675" y2="19.1892" gradientUnits="userSpaceOnUse">
<stop stop-color="#FF4F75"/>
<stop offset="1" stop-color="#FF85A2"/>
</linearGradient>
</defs>
</svg>
