<svg width="27" height="23" viewBox="0 0 27 23" fill="none" xmlns="http://www.w3.org/2000/svg">
<path d="M24.1844 4.32435L24.3261 4.44928H24.3359C26.8026 6.76458 26.8553 10.6596 24.4764 13.0387C24.4763 13.0388 24.4763 13.0388 24.4762 13.0389L15.0146 22.4933L5.55304 13.0389C5.553 13.0388 5.55295 13.0388 5.55291 13.0387C3.12988 10.6156 3.22308 6.6216 5.83048 4.32445L5.83059 4.32435C8.21067 2.22621 11.9035 2.4896 14.1818 4.76784L14.6325 5.21853L14.986 4.86498L14.6325 5.21854C14.8273 5.41338 15.0664 5.36954 15.1109 5.36064C15.1511 5.3526 15.1833 5.34154 15.2037 5.33366C15.2147 5.32945 15.2243 5.32538 15.2322 5.32182L15.2433 5.3167L15.2481 5.31437L15.2504 5.31326L15.2515 5.31272L15.252 5.31246L15.2523 5.31232C15.2524 5.31226 15.2525 5.31219 15.0289 4.86498L15.2525 5.31219L15.3251 5.27591L15.3825 5.21853L15.8332 4.76784C18.1114 2.4896 21.8043 2.22621 24.1844 4.32435Z" stroke="#262626"/>
<path d="M3.79181 1.93155C3.79181 2.72218 3.15089 3.3631 2.36026 3.3631C1.56964 3.3631 0.928711 2.72218 0.928711 1.93155C0.928711 1.14093 1.56964 0.5 2.36026 0.5C3.15089 0.5 3.79181 1.14093 3.79181 1.93155Z" stroke="#262626"/>
<path d="M3.64823 3.1755L5.07922 4.60599" stroke="#262626"/>
<path d="M20.6159 9.9388C20.6159 9.6463 20.3788 9.40918 20.0863 9.40918C19.7938 9.40918 19.5566 9.6463 19.5566 9.9388V11.3213C19.5566 11.6138 19.7938 11.8509 20.0863 11.8509C20.3788 11.8509 20.6159 11.6138 20.6159 11.3213V9.9388Z" fill="#262626"/>
<path d="M17.1696 9.9388C17.1696 9.6463 16.9325 9.40918 16.64 9.40918C16.3475 9.40918 16.1104 9.6463 16.1104 9.9388V11.3213C16.1104 11.6138 16.3475 11.8509 16.64 11.8509C16.9325 11.8509 17.1696 11.6138 17.1696 11.3213V9.9388Z" fill="#262626"/>
</svg>
