<svg width="27" height="23" viewBox="0 0 27 23" fill="none" xmlns="http://www.w3.org/2000/svg">
<path fill-rule="evenodd" clip-rule="evenodd" d="M4.04927 2.86937C4.20379 2.59167 4.29181 2.27189 4.29181 1.93155C4.29181 0.864785 3.42703 0 2.36026 0C1.2935 0 0.428711 0.864785 0.428711 1.93155C0.428711 2.99832 1.2935 3.8631 2.36026 3.8631C2.72366 3.8631 3.06362 3.76275 3.35394 3.58824L4.63696 4.87083C2.68693 7.40707 2.87444 11.0674 5.19949 13.3924L14.6712 22.857C14.7642 22.95 14.893 23.0001 15.0146 23.0001C15.1362 23.0001 15.265 22.95 15.358 22.857L24.8298 13.3924C27.4553 10.7669 27.3479 6.43884 24.5293 3.94928H24.515C21.9181 1.66004 17.9263 1.96765 15.4796 4.41428L15.0289 4.86498C15.0289 4.86498 15.0003 4.87929 14.986 4.86498L14.5353 4.41428C12.0887 1.96765 8.09682 1.66004 5.49995 3.94928C5.43406 4.00733 5.36965 4.06638 5.30672 4.12639L4.04927 2.86937Z" fill="url(#paint0_linear_137_712)"/>
<defs>
<linearGradient id="paint0_linear_137_712" x1="2" y1="1.5" x2="26.3593" y2="21.0622" gradientUnits="userSpaceOnUse">
<stop stop-color="#FF4F75"/>
<stop offset="1" stop-color="#FF85A2"/>
</linearGradient>
</defs>
</svg>
