<svg width="14" height="19" viewBox="0 0 14 19" fill="none" xmlns="http://www.w3.org/2000/svg">
<path d="M14 6.77228C14 12.0396 7 19 7 19C7 19 0 12.0396 0 6.77228C2.76642e-08 4.97616 0.737498 3.2536 2.05025 1.98355C3.36301 0.713506 5.14348 0 7 0C8.85652 0 10.637 0.713506 11.9497 1.98355C13.2625 3.2536 14 4.97616 14 6.77228Z" fill="#FF4F75"/>
<path d="M7.00033 9.02974C8.28899 9.02974 9.33366 8.01906 9.33366 6.77232C9.33366 5.52558 8.28899 4.51489 7.00033 4.51489C5.71166 4.51489 4.66699 5.52558 4.66699 6.77232C4.66699 8.01906 5.71166 9.02974 7.00033 9.02974Z" fill="white"/>
</svg>
