<svg width="30" height="30" viewBox="0 0 30 30" fill="none" xmlns="http://www.w3.org/2000/svg">
<circle cx="15" cy="15" r="15" fill="white"/>
<path d="M8.27956 21.1202C5.03956 24.3302 1.40956 19.1282 5.25556 16.4582C8.26756 14.3642 12.4316 15.3422 15.0836 17.5622L12.6956 10.6322L11.1776 15.0902L9.50956 14.8502L11.8496 7.7642C12.2036 7.0502 12.9716 7.0142 13.3676 7.6862C14.7236 11.7062 16.2776 15.6602 17.6336 19.6802C17.8316 20.2622 18.3956 21.3362 17.8316 21.7982C16.8716 22.5842 16.1996 21.0242 15.6776 20.4422C13.7816 18.3062 11.1356 16.5182 8.12956 17.0402C6.80356 17.2682 5.02756 18.1622 5.27956 19.7582C5.30956 19.9562 5.62756 20.3702 5.80756 20.4242C7.13956 20.8262 8.19556 18.3002 8.61556 17.3702C9.14956 17.2562 9.68356 17.3822 10.2116 17.4482C10.3316 17.5382 10.2536 17.5442 10.2296 17.6282C10.1816 17.8082 10.0736 18.0242 10.0076 18.2042C9.63556 19.1342 8.98156 20.4242 8.26756 21.1262L8.27956 21.1202Z" fill="url(#paint0_linear_468_3443)"/>
<path d="M20.2556 21.0902V11.4542C20.2556 10.9562 20.6576 10.5542 21.1556 10.5542H21.4016C21.8996 10.5542 22.3016 10.9562 22.3016 11.4542V21.0902C22.3016 21.5882 21.8996 21.9902 21.4016 21.9902H21.1556C20.6576 21.9902 20.2556 21.5882 20.2556 21.0902Z" fill="url(#paint1_linear_468_3443)"/>
<path d="M21.2816 9.2402C21.8449 9.2402 22.3016 8.78353 22.3016 8.2202C22.3016 7.65686 21.8449 7.2002 21.2816 7.2002C20.7182 7.2002 20.2616 7.65686 20.2616 8.2202C20.2616 8.78353 20.7182 9.2402 21.2816 9.2402Z" fill="url(#paint2_linear_468_3443)"/>
<defs>
<linearGradient id="paint0_linear_468_3443" x1="49.6689" y1="22.6982" x2="47.5394" y2="-0.148138" gradientUnits="userSpaceOnUse">
<stop stop-color="#FF4F75"/>
<stop offset="1" stop-color="#FF85A2"/>
</linearGradient>
<linearGradient id="paint1_linear_468_3443" x1="49.6689" y1="22.6982" x2="47.5394" y2="-0.148138" gradientUnits="userSpaceOnUse">
<stop stop-color="#FF4F75"/>
<stop offset="1" stop-color="#FF85A2"/>
</linearGradient>
<linearGradient id="paint2_linear_468_3443" x1="49.6689" y1="22.6982" x2="47.5394" y2="-0.148138" gradientUnits="userSpaceOnUse">
<stop stop-color="#FF4F75"/>
<stop offset="1" stop-color="#FF85A2"/>
</linearGradient>
</defs>
</svg>
