<svg width="109" height="36" viewBox="0 0 109 36" fill="none" xmlns="http://www.w3.org/2000/svg">
<path d="M5.69 30.45V27.33H3.46V30.45H5.69ZM2.64 30.45V27.33H1.25V26.67H7.9V27.33H6.51V30.45H7.88V31.12H1.27V30.45H2.64ZM0.53 32.91H8.66V33.59H0.53V32.91ZM14.1992 32.96H17.8692V33.63H9.71922V32.96H13.3692V31.27H10.7392V28.5H16.0592V27.1H10.7192V26.43H16.8592V29.16H11.5492V30.61H17.0692V31.27H14.1992V32.96ZM26.2984 25.77V30.43H25.4784V25.77H26.2984ZM21.0084 27.02V29.41C21.4884 29.4 21.9784 29.38 22.4684 29.35V27.02H21.0084ZM24.5784 29.18L24.6184 29.78C22.8384 30.05 20.7484 30.11 19.1684 30.12L19.0884 29.44C19.4384 29.44 19.8184 29.44 20.2084 29.43V27.02H19.3284V26.37H24.1384V27.02H23.2584V29.3C23.7084 29.27 24.1484 29.22 24.5784 29.18ZM21.2784 33.99H26.6384V34.64H20.4684V32.4H25.4884V31.5H20.4384V30.86H26.2984V33.01H21.2784V33.99Z" fill="#FF4F75"/>
<rect x="1" width="20" height="20" rx="10" fill="#FF4F73"/>
<path d="M12.293 5.0127V15H10.6455V6.96777L8.20508 7.79492V6.43457L12.0947 5.0127H12.293Z" fill="white"/>
<rect x="45.25" y="0.25" width="19.5" height="19.5" rx="9.75" stroke="#D9D9D9" stroke-width="0.5"/>
<path d="M58.4668 13.6875V15H51.7949V13.8721L55.0352 10.3379C55.3906 9.93685 55.6709 9.59049 55.876 9.29883C56.0811 9.00716 56.2246 8.74512 56.3066 8.5127C56.3932 8.27572 56.4365 8.04557 56.4365 7.82227C56.4365 7.50781 56.3773 7.2321 56.2588 6.99512C56.1449 6.75358 55.9762 6.56445 55.7529 6.42773C55.5296 6.28646 55.2585 6.21582 54.9395 6.21582C54.5703 6.21582 54.2604 6.29557 54.0098 6.45508C53.7591 6.61458 53.57 6.83561 53.4424 7.11816C53.3148 7.39616 53.251 7.71517 53.251 8.0752H51.6035C51.6035 7.49642 51.7357 6.96777 52 6.48926C52.2643 6.00618 52.6471 5.62337 53.1484 5.34082C53.6497 5.05371 54.2536 4.91016 54.96 4.91016C55.6253 4.91016 56.1904 5.02181 56.6553 5.24512C57.1201 5.46842 57.4733 5.78516 57.7148 6.19531C57.9609 6.60547 58.084 7.09082 58.084 7.65137C58.084 7.96126 58.0339 8.26888 57.9336 8.57422C57.8333 8.87956 57.6898 9.1849 57.5029 9.49023C57.3206 9.79102 57.1042 10.0941 56.8535 10.3994C56.6029 10.7002 56.3271 11.0055 56.0264 11.3154L53.873 13.6875H58.4668Z" fill="#909090"/>
<rect x="89.25" y="0.25" width="19.5" height="19.5" rx="9.75" stroke="#D9D9D9" stroke-width="0.5"/>
<path d="M97.7295 9.27832H98.7139C99.0967 9.27832 99.4134 9.21224 99.6641 9.08008C99.9193 8.94792 100.108 8.76562 100.231 8.5332C100.354 8.30078 100.416 8.03418 100.416 7.7334C100.416 7.41895 100.359 7.15007 100.245 6.92676C100.136 6.69889 99.9671 6.52344 99.7393 6.40039C99.516 6.27734 99.2311 6.21582 98.8848 6.21582C98.5931 6.21582 98.3288 6.27507 98.0918 6.39355C97.8594 6.50749 97.6748 6.67155 97.5381 6.88574C97.4014 7.09538 97.333 7.34603 97.333 7.6377H95.6787C95.6787 7.10905 95.8177 6.63965 96.0957 6.22949C96.3737 5.81934 96.752 5.49805 97.2305 5.26562C97.7135 5.02865 98.2559 4.91016 98.8574 4.91016C99.5 4.91016 100.061 5.01725 100.539 5.23145C101.022 5.44108 101.398 5.75553 101.667 6.1748C101.936 6.59408 102.07 7.11361 102.07 7.7334C102.07 8.01595 102.004 8.30306 101.872 8.59473C101.74 8.88639 101.544 9.15299 101.284 9.39453C101.024 9.63151 100.701 9.8252 100.313 9.97559C99.9261 10.1214 99.4772 10.1943 98.9668 10.1943H97.7295V9.27832ZM97.7295 10.5635V9.66113H98.9668C99.5501 9.66113 100.047 9.72949 100.457 9.86621C100.872 10.0029 101.209 10.1921 101.469 10.4336C101.729 10.6706 101.918 10.9417 102.036 11.2471C102.159 11.5524 102.221 11.876 102.221 12.2178C102.221 12.6826 102.136 13.0973 101.968 13.4619C101.804 13.8219 101.569 14.1273 101.264 14.3779C100.958 14.6286 100.601 14.8177 100.19 14.9453C99.7848 15.0729 99.3428 15.1367 98.8643 15.1367C98.4359 15.1367 98.0257 15.0775 97.6338 14.959C97.2419 14.8405 96.891 14.665 96.5811 14.4326C96.2712 14.1956 96.0251 13.9017 95.8428 13.5508C95.665 13.1953 95.5762 12.7852 95.5762 12.3203H97.2236C97.2236 12.6165 97.292 12.8786 97.4287 13.1064C97.57 13.3298 97.766 13.5052 98.0166 13.6328C98.2718 13.7604 98.5635 13.8242 98.8916 13.8242C99.238 13.8242 99.5365 13.7627 99.7871 13.6396C100.038 13.5166 100.229 13.3343 100.361 13.0928C100.498 12.8512 100.566 12.5596 100.566 12.2178C100.566 11.8304 100.491 11.516 100.341 11.2744C100.19 11.0329 99.9762 10.8551 99.6982 10.7412C99.4202 10.6227 99.0921 10.5635 98.7139 10.5635H97.7295Z" fill="#909090"/>
<circle cx="28" cy="10" r="1" fill="#EFEFEF"/>
<circle cx="72" cy="10" r="1" fill="#EFEFEF"/>
<circle cx="33" cy="10" r="1" fill="#EFEFEF"/>
<circle cx="77" cy="10" r="1" fill="#EFEFEF"/>
<circle cx="38" cy="10" r="1" fill="#EFEFEF"/>
<circle cx="82" cy="10" r="1" fill="#EFEFEF"/>
</svg>
