<svg width="36" height="39" viewBox="0 0 36 39" fill="none" xmlns="http://www.w3.org/2000/svg">
<path d="M18.4582 17.346C19.8179 22.4204 15.9722 30.3324 14.5878 32.9407C14.3299 33.4266 13.7335 33.5864 13.2672 33.2946C10.7641 31.7279 3.47763 26.7987 2.11796 21.7244C1.55624 19.628 1.87831 17.3869 3.01331 15.494C4.14831 13.6011 6.00327 12.2115 8.17012 11.6309C10.337 11.0503 12.6382 11.3262 14.5676 12.398C16.497 13.4698 17.8965 15.2497 18.4582 17.346Z" fill="#FF4F75"/>
<g filter="url(#filter0_bd_159_2415)">
<path d="M29.0001 16.0532C29.0001 22.6481 21.5448 31.0317 19.215 33.4906C18.8388 33.8876 18.2169 33.8876 17.8408 33.4906C15.511 31.0317 8.05566 22.6481 8.05566 16.0532C8.05566 13.3879 9.15898 10.8317 11.1229 8.94709C13.0868 7.06245 15.7505 6.00366 18.5279 6.00366C21.3053 6.00366 23.9689 7.06245 25.9329 8.94709C27.8968 10.8317 29.0001 13.3879 29.0001 16.0532Z" fill="white" fill-opacity="0.5" shape-rendering="crispEdges"/>
<path d="M29.0001 16.0532C29.0001 22.6481 21.5448 31.0317 19.215 33.4906C18.8388 33.8876 18.2169 33.8876 17.8408 33.4906C15.511 31.0317 8.05566 22.6481 8.05566 16.0532C8.05566 13.3879 9.15898 10.8317 11.1229 8.94709C13.0868 7.06245 15.7505 6.00366 18.5279 6.00366C21.3053 6.00366 23.9689 7.06245 25.9329 8.94709C27.8968 10.8317 29.0001 13.3879 29.0001 16.0532Z" stroke="white" stroke-width="0.25" stroke-linecap="round" stroke-linejoin="round" shape-rendering="crispEdges"/>
</g>
<g filter="url(#filter1_d_159_2415)">
<circle cx="18.5283" cy="16.0732" r="3.625" fill="white"/>
</g>
<defs>
<filter id="filter0_bd_159_2415" x="2.93066" y="0.878662" width="32.1943" height="38.0347" filterUnits="userSpaceOnUse" color-interpolation-filters="sRGB">
<feFlood flood-opacity="0" result="BackgroundImageFix"/>
<feGaussianBlur in="BackgroundImageFix" stdDeviation="2.5"/>
<feComposite in2="SourceAlpha" operator="in" result="effect1_backgroundBlur_159_2415"/>
<feColorMatrix in="SourceAlpha" type="matrix" values="0 0 0 0 0 0 0 0 0 0 0 0 0 0 0 0 0 0 127 0" result="hardAlpha"/>
<feOffset dx="1"/>
<feGaussianBlur stdDeviation="2.5"/>
<feComposite in2="hardAlpha" operator="out"/>
<feColorMatrix type="matrix" values="0 0 0 0 1 0 0 0 0 0.309804 0 0 0 0 0.458824 0 0 0 0.25 0"/>
<feBlend mode="normal" in2="effect1_backgroundBlur_159_2415" result="effect2_dropShadow_159_2415"/>
<feBlend mode="normal" in="SourceGraphic" in2="effect2_dropShadow_159_2415" result="shape"/>
</filter>
<filter id="filter1_d_159_2415" x="13.9033" y="11.4482" width="11.25" height="11.25" filterUnits="userSpaceOnUse" color-interpolation-filters="sRGB">
<feFlood flood-opacity="0" result="BackgroundImageFix"/>
<feColorMatrix in="SourceAlpha" type="matrix" values="0 0 0 0 0 0 0 0 0 0 0 0 0 0 0 0 0 0 127 0" result="hardAlpha"/>
<feOffset dx="1" dy="1"/>
<feGaussianBlur stdDeviation="1"/>
<feComposite in2="hardAlpha" operator="out"/>
<feColorMatrix type="matrix" values="0 0 0 0 1 0 0 0 0 0.309804 0 0 0 0 0.458824 0 0 0 0.3 0"/>
<feBlend mode="normal" in2="BackgroundImageFix" result="effect1_dropShadow_159_2415"/>
<feBlend mode="normal" in="SourceGraphic" in2="effect1_dropShadow_159_2415" result="shape"/>
</filter>
</defs>
</svg>
