<svg width="20" height="21" viewBox="0 0 20 21" fill="none" xmlns="http://www.w3.org/2000/svg">
<circle cx="10" cy="10.5" r="10" fill="#FF4F75"/>
<path d="M6.67949 15.9077C6.62321 16.0934 6.83784 16.2424 6.99216 16.1247L10.3787 13.5425C10.4504 13.4879 10.5496 13.4879 10.6213 13.5425L14.0078 16.1247C14.1622 16.2424 14.3768 16.0934 14.3205 15.9077L13.0417 11.6875C13.0168 11.6053 13.0471 11.5164 13.117 11.4666L16.4907 9.06288C16.6492 8.94991 16.5693 8.7 16.3746 8.7H12.2477C12.1599 8.7 12.0824 8.64274 12.0566 8.55882L10.6912 4.12126C10.6332 3.93301 10.3668 3.93301 10.3088 4.12126L8.94344 8.55882C8.91762 8.64274 8.84009 8.7 8.75229 8.7H4.62537C4.43068 8.7 4.35075 8.94991 4.50931 9.06288L7.88298 11.4666C7.95291 11.5164 7.98323 11.6053 7.95833 11.6875L6.67949 15.9077Z" fill="white"/>
</svg>
