<svg width="48" height="48" viewBox="0 0 48 48" fill="none" xmlns="http://www.w3.org/2000/svg">
<circle cx="24" cy="24" r="24" fill="#FF85A2"/>
<path d="M25.8889 16L25.4815 26.9891H22.5185L22.0988 16H25.8889ZM22 30.3913C22 29.9275 22.1811 29.5435 22.5432 29.2391C22.9136 28.9275 23.3992 28.7717 24 28.7717C24.6091 28.7717 25.0947 28.9275 25.4568 29.2391C25.8189 29.5435 26 29.9275 26 30.3913C26 30.8406 25.8189 31.221 25.4568 31.5326C25.0947 31.8442 24.6091 32 24 32C23.3992 32 22.9136 31.8442 22.5432 31.5326C22.1811 31.221 22 30.8406 22 30.3913Z" fill="white"/>
</svg>
