<svg width="77" height="65" viewBox="0 0 77 65" fill="none" xmlns="http://www.w3.org/2000/svg">
<path fill-rule="evenodd" clip-rule="evenodd" d="M63.6062 11.6133C64.3132 11.8027 64.8055 12.4425 64.8075 13.1745L64.8157 16.2367L69.6628 17.5355C73.1214 18.4622 75.1739 22.0173 74.2472 25.4759L66.6766 53.7297C65.7498 57.1883 62.1948 59.2408 58.7362 58.3141L14.5256 46.4679C11.067 45.5411 9.01447 41.9861 9.94121 38.5275L17.5118 10.2737C18.4385 6.81507 21.9935 4.76257 25.4522 5.68931L50.7926 12.4793L52.3308 9.83141C52.6985 9.19848 53.4448 8.89054 54.1518 9.07999L63.6062 11.6133Z" fill="url(#paint0_linear_581_7613)"/>
<g filter="url(#filter0_bd_581_7613)">
<mask id="path-2-inside-1_581_7613" fill="white">
<path fill-rule="evenodd" clip-rule="evenodd" d="M40.4415 14.7227C39.7095 14.7227 39.0683 15.2133 38.877 15.9198L38.0268 19.0588H10.4833C6.90267 19.0588 4 21.9615 4 25.5421V54.7926C4 58.3732 6.90266 61.2759 10.4833 61.2759H56.2535C59.8341 61.2759 62.7368 58.3732 62.7368 54.7926V25.5421C62.7368 21.9615 59.8341 19.0588 56.2535 19.0588H52.644L51.7938 15.9198C51.6024 15.2133 50.9613 14.7227 50.2293 14.7227H40.4415Z"/>
</mask>
<path fill-rule="evenodd" clip-rule="evenodd" d="M40.4415 14.7227C39.7095 14.7227 39.0683 15.2133 38.877 15.9198L38.0268 19.0588H10.4833C6.90267 19.0588 4 21.9615 4 25.5421V54.7926C4 58.3732 6.90266 61.2759 10.4833 61.2759H56.2535C59.8341 61.2759 62.7368 58.3732 62.7368 54.7926V25.5421C62.7368 21.9615 59.8341 19.0588 56.2535 19.0588H52.644L51.7938 15.9198C51.6024 15.2133 50.9613 14.7227 50.2293 14.7227H40.4415Z" fill="white" fill-opacity="0.5" shape-rendering="crispEdges"/>
<path d="M38.877 15.9198L39.1183 15.9851V15.9851L38.877 15.9198ZM38.0268 19.0588V19.3088H38.2181L38.2681 19.1242L38.0268 19.0588ZM52.644 19.0588L52.4027 19.1242L52.4527 19.3088H52.644V19.0588ZM51.7938 15.9198L51.5525 15.9851V15.9851L51.7938 15.9198ZM39.1183 15.9851C39.2801 15.3876 39.8224 14.9727 40.4415 14.9727V14.4727C39.5966 14.4727 38.8565 15.0389 38.6357 15.8544L39.1183 15.9851ZM38.2681 19.1242L39.1183 15.9851L38.6357 15.8544L37.7855 18.9935L38.2681 19.1242ZM10.4833 19.3088H38.0268V18.8088H10.4833V19.3088ZM4.25 25.5421C4.25 22.0996 7.04074 19.3088 10.4833 19.3088V18.8088C6.7646 18.8088 3.75 21.8234 3.75 25.5421H4.25ZM4.25 54.7926V25.5421H3.75V54.7926H4.25ZM10.4833 61.0259C7.04074 61.0259 4.25 58.2352 4.25 54.7926H3.75C3.75 58.5113 6.76459 61.5259 10.4833 61.5259V61.0259ZM56.2535 61.0259H10.4833V61.5259H56.2535V61.0259ZM62.4868 54.7926C62.4868 58.2352 59.696 61.0259 56.2535 61.0259V61.5259C59.9722 61.5259 62.9868 58.5113 62.9868 54.7926H62.4868ZM62.4868 25.5421V54.7926H62.9868V25.5421H62.4868ZM56.2535 19.3088C59.696 19.3088 62.4868 22.0996 62.4868 25.5421H62.9868C62.9868 21.8234 59.9722 18.8088 56.2535 18.8088V19.3088ZM52.644 19.3088H56.2535V18.8088H52.644V19.3088ZM51.5525 15.9851L52.4027 19.1242L52.8853 18.9935L52.0351 15.8544L51.5525 15.9851ZM50.2293 14.9727C50.8484 14.9727 51.3907 15.3876 51.5525 15.9851L52.0351 15.8544C51.8142 15.0389 51.0742 14.4727 50.2293 14.4727V14.9727ZM40.4415 14.9727H50.2293V14.4727H40.4415V14.9727Z" fill="white" mask="url(#path-2-inside-1_581_7613)"/>
</g>
<g filter="url(#filter1_d_581_7613)">
<circle cx="33.3676" cy="41.0854" r="10.0131" stroke="white" stroke-width="2" shape-rendering="crispEdges"/>
</g>
<g filter="url(#filter2_d_581_7613)">
<path d="M12 30.9902H17.5066" stroke="white" stroke-width="2" stroke-linecap="round"/>
</g>
<defs>
<filter id="filter0_bd_581_7613" x="-3.30666" y="7.416" width="73.3501" height="61.167" filterUnits="userSpaceOnUse" color-interpolation-filters="sRGB">
<feFlood flood-opacity="0" result="BackgroundImageFix"/>
<feGaussianBlur in="BackgroundImageFix" stdDeviation="3.65333"/>
<feComposite in2="SourceAlpha" operator="in" result="effect1_backgroundBlur_581_7613"/>
<feColorMatrix in="SourceAlpha" type="matrix" values="0 0 0 0 0 0 0 0 0 0 0 0 0 0 0 0 0 0 127 0" result="hardAlpha"/>
<feOffset dx="-0.6" dy="0.6"/>
<feGaussianBlur stdDeviation="1.5"/>
<feComposite in2="hardAlpha" operator="out"/>
<feColorMatrix type="matrix" values="0 0 0 0 1 0 0 0 0 0.309804 0 0 0 0 0.458824 0 0 0 0.25 0"/>
<feBlend mode="normal" in2="effect1_backgroundBlur_581_7613" result="effect2_dropShadow_581_7613"/>
<feBlend mode="normal" in="SourceGraphic" in2="effect2_dropShadow_581_7613" result="shape"/>
</filter>
<filter id="filter1_d_581_7613" x="20.7337" y="28.4514" width="28.5095" height="28.5097" filterUnits="userSpaceOnUse" color-interpolation-filters="sRGB">
<feFlood flood-opacity="0" result="BackgroundImageFix"/>
<feColorMatrix in="SourceAlpha" type="matrix" values="0 0 0 0 0 0 0 0 0 0 0 0 0 0 0 0 0 0 127 0" result="hardAlpha"/>
<feOffset dx="1.62082" dy="1.62082"/>
<feGaussianBlur stdDeviation="1.62082"/>
<feComposite in2="hardAlpha" operator="out"/>
<feColorMatrix type="matrix" values="0 0 0 0 1 0 0 0 0 0.309804 0 0 0 0 0.458824 0 0 0 0.3 0"/>
<feBlend mode="normal" in2="BackgroundImageFix" result="effect1_dropShadow_581_7613"/>
<feBlend mode="normal" in="SourceGraphic" in2="effect1_dropShadow_581_7613" result="shape"/>
</filter>
<filter id="filter2_d_581_7613" x="9.37918" y="28.3694" width="13.9899" height="8.48329" filterUnits="userSpaceOnUse" color-interpolation-filters="sRGB">
<feFlood flood-opacity="0" result="BackgroundImageFix"/>
<feColorMatrix in="SourceAlpha" type="matrix" values="0 0 0 0 0 0 0 0 0 0 0 0 0 0 0 0 0 0 127 0" result="hardAlpha"/>
<feOffset dx="1.62082" dy="1.62082"/>
<feGaussianBlur stdDeviation="1.62082"/>
<feComposite in2="hardAlpha" operator="out"/>
<feColorMatrix type="matrix" values="0 0 0 0 1 0 0 0 0 0.309804 0 0 0 0 0.458824 0 0 0 0.3 0"/>
<feBlend mode="normal" in2="BackgroundImageFix" result="effect1_dropShadow_581_7613"/>
<feBlend mode="normal" in="SourceGraphic" in2="effect1_dropShadow_581_7613" result="shape"/>
</filter>
<linearGradient id="paint0_linear_581_7613" x1="59.2764" y1="16.8637" x2="9.88296" y2="41.6342" gradientUnits="userSpaceOnUse">
<stop stop-color="#FF4F75"/>
<stop offset="1" stop-color="#FF85A2"/>
</linearGradient>
</defs>
</svg>
