<svg width="14" height="17" viewBox="0 0 14 17" fill="none" xmlns="http://www.w3.org/2000/svg">
<path d="M13 6.20297C13 10.6386 7 16.5 7 16.5C7 16.5 1 10.6386 1 6.20297C1 4.69045 1.63214 3.23988 2.75736 2.17036C3.88258 1.10085 5.4087 0.5 7 0.5C8.5913 0.5 10.1174 1.10085 11.2426 2.17036C12.3679 3.23988 13 4.69045 13 6.20297Z" stroke="white" stroke-linecap="round" stroke-linejoin="round"/>
<path d="M7 8.10396C8.10457 8.10396 9 7.25286 9 6.20297C9 5.15308 8.10457 4.30198 7 4.30198C5.89543 4.30198 5 5.15308 5 6.20297C5 7.25286 5.89543 8.10396 7 8.10396Z" stroke="white" stroke-linecap="round" stroke-linejoin="round"/>
</svg>
