<svg width="22" height="5" viewBox="0 0 22 5" fill="none" xmlns="http://www.w3.org/2000/svg">
<path d="M11 0.5529C9.89543 0.5529 9 1.42468 9 2.50008C9 3.57548 9.89543 4.44727 11 4.44727C12.1046 4.44727 13 3.57548 13 2.50008C13 1.42468 12.1046 0.5529 11 0.5529Z" fill="#262626"/>
<path d="M2 0.5529C0.895432 0.5529 0 1.42468 0 2.50008C0 3.57548 0.895432 4.44727 2 4.44727C3.10457 4.44727 4 3.57548 4 2.50008C4 1.42468 3.10457 0.5529 2 0.5529Z" fill="#262626"/>
<path d="M20 0.5529C18.8954 0.5529 18 1.42468 18 2.50008C18 3.57548 18.8954 4.44727 20 4.44727C21.1046 4.44727 22 3.57548 22 2.50008C22 1.42468 21.1046 0.5529 20 0.5529Z" fill="#262626"/>
</svg>
