<svg width="17" height="20" viewBox="0 0 17 20" fill="none" xmlns="http://www.w3.org/2000/svg">
<path d="M1.81041 13.0731L2.2326 13.341L2.31041 13.2183V13.0731H1.81041ZM1.31448 13.8547L0.892287 13.5869L0.892287 13.5869L1.31448 13.8547ZM16.1576 13.8547L16.5798 13.5869H16.5798L16.1576 13.8547ZM15.6623 13.074H15.1623V13.2193L15.2401 13.3419L15.6623 13.074ZM2.31041 7.5558C2.31041 4.00686 5.1874 1.12988 8.73634 1.12988V0.129883C4.63512 0.129883 1.31041 3.45458 1.31041 7.5558H2.31041ZM2.31041 13.0731V7.5558H1.31041V13.0731H2.31041ZM1.73667 14.1226L2.2326 13.341L1.38822 12.8052L0.892287 13.5869L1.73667 14.1226ZM3.00324 16.4262C1.82051 16.4262 1.10303 15.1213 1.73667 14.1226L0.892287 13.5869C-0.163783 15.2513 1.03202 17.4262 3.00324 17.4262V16.4262ZM14.4688 16.4262H3.00324V17.4262H14.4688V16.4262ZM15.7354 14.1226C16.3691 15.1213 15.6516 16.4262 14.4688 16.4262V17.4262C16.4401 17.4262 17.6359 15.2513 16.5798 13.5869L15.7354 14.1226ZM15.2401 13.3419L15.7354 14.1226L16.5798 13.5869L16.0845 12.8062L15.2401 13.3419ZM15.1623 7.55581V13.074H16.1623V7.55581H15.1623ZM8.73634 1.12988C12.2853 1.12988 15.1623 4.00687 15.1623 7.55581H16.1623C16.1623 3.45458 12.8376 0.129883 8.73634 0.129883V1.12988Z" fill="#262626"/>
<path d="M11.2903 16.9263C11.2903 18.2763 10.1958 19.3707 8.84581 19.3707C7.49578 19.3707 6.40137 18.2763 6.40137 16.9263" stroke="#262626"/>
</svg>
