<svg width="21" height="19" viewBox="0 0 21 19" fill="none" xmlns="http://www.w3.org/2000/svg">
<path d="M19.3807 1.67974C18.8676 1.14721 18.2583 0.724775 17.5878 0.43656C16.9172 0.148345 16.1985 0 15.4727 0C14.7468 0 14.0281 0.148345 13.3576 0.43656C12.687 0.724775 12.0778 1.14721 11.5646 1.67974L10.4997 2.7844L9.43482 1.67974C8.39834 0.604577 6.99258 0.000557294 5.52679 0.000557305C4.06099 0.000557316 2.65523 0.604577 1.61876 1.67974C0.582285 2.7549 1.0921e-08 4.21313 0 5.73364C-1.0921e-08 7.25415 0.582285 8.71238 1.61876 9.78754L9.77979 18.2532C10.1731 18.6611 10.8264 18.6611 11.2197 18.2532L19.3807 9.78754C19.8941 9.25526 20.3013 8.62328 20.5791 7.9277C20.857 7.23212 21 6.48657 21 5.73364C21 4.98071 20.857 4.23516 20.5791 3.53958C20.3013 2.84399 19.8941 2.21201 19.3807 1.67974Z" fill="#FF4F75"/>
</svg>
