<svg width="108" height="36" viewBox="0 0 108 36" fill="none" xmlns="http://www.w3.org/2000/svg">
<path d="M36.4338 25.77H37.2538V34.76H36.4338V25.77ZM32.5238 26.46C33.8538 26.46 34.8038 27.68 34.8038 29.59C34.8038 31.5 33.8538 32.72 32.5238 32.72C31.1938 32.72 30.2438 31.5 30.2438 29.59C30.2438 27.68 31.1938 26.46 32.5238 26.46ZM32.5238 27.2C31.6438 27.2 31.0238 28.14 31.0238 29.59C31.0238 31.05 31.6438 31.99 32.5238 31.99C33.3938 31.99 34.0138 31.05 34.0138 29.59C34.0138 28.14 33.3938 27.2 32.5238 27.2ZM44.293 29.99L43.863 30.63C42.893 30.27 42.123 29.53 41.723 28.61C41.353 29.66 40.553 30.48 39.503 30.88L39.073 30.23C40.433 29.74 41.303 28.52 41.303 27.15V26.23H42.123V27.22C42.123 28.43 43.003 29.55 44.293 29.99ZM43.223 34.09C44.543 34.09 45.353 33.72 45.353 33.1C45.353 32.47 44.543 32.1 43.223 32.1C41.893 32.1 41.083 32.47 41.083 33.1C41.083 33.72 41.893 34.09 43.223 34.09ZM43.223 31.46C45.043 31.46 46.173 32.05 46.173 33.1C46.173 34.14 45.043 34.73 43.223 34.73C41.393 34.73 40.263 34.14 40.263 33.1C40.263 32.05 41.393 31.46 43.223 31.46ZM46.073 28.09H47.403V28.77H46.073V31.21H45.253V25.78H46.073V28.09ZM54.8722 29.67V28.59H53.3622V27.93H54.8722V25.77H55.7022V31.56H54.8722V30.34H53.3522V29.67H54.8722ZM53.3522 26.76V27.42H48.3322V26.76H50.4722V25.69H51.2922V26.76H53.3522ZM49.6122 29.54C49.6122 30.17 50.1222 30.58 50.8722 30.58C51.6222 30.58 52.1322 30.17 52.1322 29.54C52.1322 28.92 51.6222 28.51 50.8722 28.51C50.1222 28.51 49.6122 28.92 49.6122 29.54ZM52.9022 29.54C52.9022 30.55 52.0622 31.21 50.8722 31.21C49.6722 31.21 48.8422 30.55 48.8422 29.54C48.8422 28.54 49.6722 27.88 50.8722 27.88C52.0622 27.88 52.9022 28.54 52.9022 29.54ZM52.7622 34.1C54.0822 34.1 54.8922 33.77 54.8922 33.2C54.8922 32.62 54.0822 32.3 52.7622 32.3C51.4422 32.3 50.6222 32.62 50.6222 33.2C50.6222 33.77 51.4422 34.1 52.7622 34.1ZM52.7622 31.67C54.6122 31.67 55.7422 32.22 55.7422 33.2C55.7422 34.17 54.6122 34.73 52.7622 34.73C50.9022 34.73 49.7722 34.17 49.7722 33.2C49.7722 32.22 50.9022 31.67 52.7622 31.67ZM64.5378 28.1H66.3078V25.78H67.1378V31.12H66.3078V28.77H64.5378V28.1ZM65.0378 30.14L64.6278 30.78C63.6278 30.42 62.8578 29.68 62.4678 28.76C62.0878 29.8 61.2578 30.64 60.2078 31.04L59.7778 30.39C61.1178 29.9 62.0378 28.69 62.0378 27.4V27.09H60.0378V26.43H64.8278V27.09H62.8578V27.4C62.8578 28.55 63.7378 29.68 65.0378 30.14ZM64.1778 34.1C65.5278 34.1 66.3478 33.72 66.3478 33.07C66.3478 32.42 65.5278 32.03 64.1778 32.03C62.8278 32.03 62.0078 32.42 62.0078 33.07C62.0078 33.72 62.8278 34.1 64.1778 34.1ZM64.1778 31.4C66.0178 31.4 67.1678 32.01 67.1678 33.07C67.1678 34.13 66.0178 34.74 64.1778 34.74C62.3378 34.74 61.1878 34.13 61.1878 33.07C61.1878 32.01 62.3378 31.4 64.1778 31.4ZM70.717 28.68V30.33H75.297V28.68H70.717ZM73.417 32.92H77.077V33.59H68.947V32.92H72.587V30.99H69.907V26.41H70.717V28.01H75.297V26.41H76.097V30.99H73.417V32.92Z" fill="#FF4F75"/>
<rect x="88.25" y="0.25" width="19.5" height="19.5" rx="9.75" stroke="#D9D9D9" stroke-width="0.5"/>
<path d="M96.7295 9.27832H97.7139C98.0967 9.27832 98.4134 9.21224 98.6641 9.08008C98.9193 8.94792 99.1084 8.76562 99.2314 8.5332C99.3545 8.30078 99.416 8.03418 99.416 7.7334C99.416 7.41895 99.359 7.15007 99.2451 6.92676C99.1357 6.69889 98.9671 6.52344 98.7393 6.40039C98.516 6.27734 98.2311 6.21582 97.8848 6.21582C97.5931 6.21582 97.3288 6.27507 97.0918 6.39355C96.8594 6.50749 96.6748 6.67155 96.5381 6.88574C96.4014 7.09538 96.333 7.34603 96.333 7.6377H94.6787C94.6787 7.10905 94.8177 6.63965 95.0957 6.22949C95.3737 5.81934 95.752 5.49805 96.2305 5.26562C96.7135 5.02865 97.2559 4.91016 97.8574 4.91016C98.5 4.91016 99.0605 5.01725 99.5391 5.23145C100.022 5.44108 100.398 5.75553 100.667 6.1748C100.936 6.59408 101.07 7.11361 101.07 7.7334C101.07 8.01595 101.004 8.30306 100.872 8.59473C100.74 8.88639 100.544 9.15299 100.284 9.39453C100.024 9.63151 99.7008 9.8252 99.3135 9.97559C98.9261 10.1214 98.4772 10.1943 97.9668 10.1943H96.7295V9.27832ZM96.7295 10.5635V9.66113H97.9668C98.5501 9.66113 99.0469 9.72949 99.457 9.86621C99.8717 10.0029 100.209 10.1921 100.469 10.4336C100.729 10.6706 100.918 10.9417 101.036 11.2471C101.159 11.5524 101.221 11.876 101.221 12.2178C101.221 12.6826 101.136 13.0973 100.968 13.4619C100.804 13.8219 100.569 14.1273 100.264 14.3779C99.9583 14.6286 99.6006 14.8177 99.1904 14.9453C98.7848 15.0729 98.3428 15.1367 97.8643 15.1367C97.4359 15.1367 97.0257 15.0775 96.6338 14.959C96.2419 14.8405 95.891 14.665 95.5811 14.4326C95.2712 14.1956 95.0251 13.9017 94.8428 13.5508C94.665 13.1953 94.5762 12.7852 94.5762 12.3203H96.2236C96.2236 12.6165 96.292 12.8786 96.4287 13.1064C96.57 13.3298 96.766 13.5052 97.0166 13.6328C97.2718 13.7604 97.5635 13.8242 97.8916 13.8242C98.238 13.8242 98.5365 13.7627 98.7871 13.6396C99.0378 13.5166 99.2292 13.3343 99.3613 13.0928C99.498 12.8512 99.5664 12.5596 99.5664 12.2178C99.5664 11.8304 99.4912 11.516 99.3408 11.2744C99.1904 11.0329 98.9762 10.8551 98.6982 10.7412C98.4202 10.6227 98.0921 10.5635 97.7139 10.5635H96.7295Z" fill="#909090"/>
<rect x="44" width="20" height="20" rx="10" fill="#FF4F73"/>
<path d="M57.4668 13.6875V15H50.7949V13.8721L54.0352 10.3379C54.3906 9.93685 54.6709 9.59049 54.876 9.29883C55.0811 9.00716 55.2246 8.74512 55.3066 8.5127C55.3932 8.27572 55.4365 8.04557 55.4365 7.82227C55.4365 7.50781 55.3773 7.2321 55.2588 6.99512C55.1449 6.75358 54.9762 6.56445 54.7529 6.42773C54.5296 6.28646 54.2585 6.21582 53.9395 6.21582C53.5703 6.21582 53.2604 6.29557 53.0098 6.45508C52.7591 6.61458 52.57 6.83561 52.4424 7.11816C52.3148 7.39616 52.251 7.71517 52.251 8.0752H50.6035C50.6035 7.49642 50.7357 6.96777 51 6.48926C51.2643 6.00618 51.6471 5.62337 52.1484 5.34082C52.6497 5.05371 53.2536 4.91016 53.96 4.91016C54.6253 4.91016 55.1904 5.02181 55.6553 5.24512C56.1201 5.46842 56.4733 5.78516 56.7148 6.19531C56.9609 6.60547 57.084 7.09082 57.084 7.65137C57.084 7.96126 57.0339 8.26888 56.9336 8.57422C56.8333 8.87956 56.6898 9.1849 56.5029 9.49023C56.3206 9.79102 56.1042 10.0941 55.8535 10.3994C55.6029 10.7002 55.3271 11.0055 55.0264 11.3154L52.873 13.6875H57.4668Z" fill="white"/>
<rect width="20" height="20" rx="10" fill="#EFEFEF"/>
<path d="M16 7L9.125 13.6464L6 10.6253" stroke="white" stroke-width="1.5" stroke-linecap="round" stroke-linejoin="round"/>
<circle cx="27" cy="10" r="1" fill="#EFEFEF"/>
<circle cx="71" cy="10" r="1" fill="#EFEFEF"/>
<circle cx="32" cy="10" r="1" fill="#EFEFEF"/>
<circle cx="76" cy="10" r="1" fill="#EFEFEF"/>
<circle cx="37" cy="10" r="1" fill="#EFEFEF"/>
<circle cx="81" cy="10" r="1" fill="#EFEFEF"/>
</svg>
