<svg width="109" height="36" viewBox="0 0 109 36" fill="none" xmlns="http://www.w3.org/2000/svg">
<path d="M71.4168 28.11C71.4168 28.91 72.0668 29.48 72.9468 29.48C73.8268 29.48 74.4768 28.91 74.4768 28.11C74.4768 27.32 73.8268 26.75 72.9468 26.75C72.0668 26.75 71.4168 27.32 71.4168 28.11ZM77.0568 28.43H75.2368C75.0668 29.46 74.1568 30.15 72.9468 30.15C71.6068 30.15 70.6368 29.32 70.6368 28.11C70.6368 26.91 71.6068 26.08 72.9468 26.08C74.1468 26.08 75.0568 26.76 75.2268 27.77H77.0568V25.78H77.8768V30.34H77.0568V28.43ZM72.9268 33.97H78.2168V34.62H72.1168V32.37H77.0668V31.48H72.0968V30.83H77.8768V32.99H72.9268V33.97ZM87.836 29.66H84.166V30.82H86.816V32.99H81.496V33.98H87.036V34.63H80.686V32.4H85.996V31.47H80.656V30.82H83.336V29.66H79.696V29H85.776C85.966 28.05 85.976 27.36 85.976 26.78H80.736V26.13H86.786V26.69C86.786 27.28 86.786 28.04 86.606 29H87.836V29.66ZM98.4916 25.78V32.33H97.6716V25.78H98.4916ZM92.1416 28.6C92.1416 29.49 92.8016 30.11 93.6716 30.11C94.5616 30.11 95.2216 29.49 95.2216 28.6C95.2216 27.73 94.5616 27.11 93.6716 27.11C92.8016 27.11 92.1416 27.73 92.1416 28.6ZM96.0216 28.6C96.0216 29.9 95.0116 30.82 93.6716 30.82C92.3416 30.82 91.3416 29.9 91.3416 28.6C91.3416 27.31 92.3416 26.4 93.6716 26.4C95.0116 26.4 96.0216 27.31 96.0216 28.6ZM93.5416 33.87H98.7616V34.54H92.7216V31.66H93.5416V33.87ZM101.081 29.49L100.791 28.84C102.381 28.67 103.821 27.89 103.861 26.89H101.081V26.23H107.711V26.89H104.921C104.961 27.89 106.401 28.67 107.991 28.84L107.701 29.49C106.231 29.31 104.881 28.66 104.391 27.68C103.891 28.66 102.551 29.31 101.081 29.49ZM104.381 34.08C105.781 34.08 106.621 33.73 106.621 33.1C106.621 32.48 105.781 32.12 104.381 32.12C102.971 32.12 102.141 32.48 102.141 33.1C102.141 33.73 102.971 34.08 104.381 34.08ZM104.381 31.48C106.291 31.48 107.451 32.06 107.451 33.1C107.451 34.15 106.291 34.73 104.381 34.73C102.461 34.73 101.311 34.15 101.311 33.1C101.311 32.06 102.461 31.48 104.381 31.48ZM100.331 30.04H108.441V30.7H100.331V30.04Z" fill="#FF4F75"/>
<rect x="88" width="20" height="20" rx="10" fill="#FF4F73"/>
<path d="M96.7295 9.27832H97.7139C98.0967 9.27832 98.4134 9.21224 98.6641 9.08008C98.9193 8.94792 99.1084 8.76562 99.2314 8.5332C99.3545 8.30078 99.416 8.03418 99.416 7.7334C99.416 7.41895 99.359 7.15007 99.2451 6.92676C99.1357 6.69889 98.9671 6.52344 98.7393 6.40039C98.516 6.27734 98.2311 6.21582 97.8848 6.21582C97.5931 6.21582 97.3288 6.27507 97.0918 6.39355C96.8594 6.50749 96.6748 6.67155 96.5381 6.88574C96.4014 7.09538 96.333 7.34603 96.333 7.6377H94.6787C94.6787 7.10905 94.8177 6.63965 95.0957 6.22949C95.3737 5.81934 95.752 5.49805 96.2305 5.26562C96.7135 5.02865 97.2559 4.91016 97.8574 4.91016C98.5 4.91016 99.0605 5.01725 99.5391 5.23145C100.022 5.44108 100.398 5.75553 100.667 6.1748C100.936 6.59408 101.07 7.11361 101.07 7.7334C101.07 8.01595 101.004 8.30306 100.872 8.59473C100.74 8.88639 100.544 9.15299 100.284 9.39453C100.024 9.63151 99.7008 9.8252 99.3135 9.97559C98.9261 10.1214 98.4772 10.1943 97.9668 10.1943H96.7295V9.27832ZM96.7295 10.5635V9.66113H97.9668C98.5501 9.66113 99.0469 9.72949 99.457 9.86621C99.8717 10.0029 100.209 10.1921 100.469 10.4336C100.729 10.6706 100.918 10.9417 101.036 11.2471C101.159 11.5524 101.221 11.876 101.221 12.2178C101.221 12.6826 101.136 13.0973 100.968 13.4619C100.804 13.8219 100.569 14.1273 100.264 14.3779C99.9583 14.6286 99.6006 14.8177 99.1904 14.9453C98.7848 15.0729 98.3428 15.1367 97.8643 15.1367C97.4359 15.1367 97.0257 15.0775 96.6338 14.959C96.2419 14.8405 95.891 14.665 95.5811 14.4326C95.2712 14.1956 95.0251 13.9017 94.8428 13.5508C94.665 13.1953 94.5762 12.7852 94.5762 12.3203H96.2236C96.2236 12.6165 96.292 12.8786 96.4287 13.1064C96.57 13.3298 96.766 13.5052 97.0166 13.6328C97.2718 13.7604 97.5635 13.8242 97.8916 13.8242C98.238 13.8242 98.5365 13.7627 98.7871 13.6396C99.0378 13.5166 99.2292 13.3343 99.3613 13.0928C99.498 12.8512 99.5664 12.5596 99.5664 12.2178C99.5664 11.8304 99.4912 11.516 99.3408 11.2744C99.1904 11.0329 98.9762 10.8551 98.6982 10.7412C98.4202 10.6227 98.0921 10.5635 97.7139 10.5635H96.7295Z" fill="white"/>
<rect width="20" height="20" rx="10" fill="#EFEFEF"/>
<path d="M16 7L9.125 13.6464L6 10.6253" stroke="white" stroke-width="1.5" stroke-linecap="round" stroke-linejoin="round"/>
<rect x="44" width="20" height="20" rx="10" fill="#EFEFEF"/>
<path d="M60 7L53.125 13.6464L50 10.6253" stroke="white" stroke-width="1.5" stroke-linecap="round" stroke-linejoin="round"/>
<circle cx="27" cy="10" r="1" fill="#EFEFEF"/>
<circle cx="71" cy="10" r="1" fill="#EFEFEF"/>
<circle cx="32" cy="10" r="1" fill="#EFEFEF"/>
<circle cx="76" cy="10" r="1" fill="#EFEFEF"/>
<circle cx="37" cy="10" r="1" fill="#EFEFEF"/>
<circle cx="81" cy="10" r="1" fill="#EFEFEF"/>
</svg>
